<svg width="125" height="35" viewBox="0 0 125 35" fill="none" xmlns="http://www.w3.org/2000/svg">
<path d="M53.4228 28.3C52.1828 28.3 51.0728 27.99 50.0928 27.37C49.1328 26.75 48.3728 25.86 47.8128 24.7C47.2728 23.54 47.0028 22.15 47.0028 20.53C47.0028 18.87 47.2928 17.46 47.8728 16.3C48.4528 15.12 49.2328 14.23 50.2128 13.63C51.2128 13.01 52.3328 12.7 53.5728 12.7C54.8928 12.7 55.9828 13.08 56.8428 13.84C57.7028 14.6 58.2628 15.58 58.5228 16.78L58.1328 17.26V6.43H62.2428V28H58.5528L58.2828 23.44L58.7928 23.68C58.6528 24.62 58.3328 25.44 57.8328 26.14C57.3328 26.82 56.7028 27.35 55.9428 27.73C55.1828 28.11 54.3428 28.3 53.4228 28.3ZM54.6228 25.15C55.3428 25.15 55.9628 24.97 56.4828 24.61C57.0028 24.23 57.4028 23.68 57.6828 22.96C57.9828 22.24 58.1328 21.38 58.1328 20.38C58.1328 19.42 57.9928 18.61 57.7128 17.95C57.4328 17.27 57.0328 16.75 56.5128 16.39C55.9928 16.03 55.3828 15.85 54.6828 15.85C53.5628 15.85 52.6828 16.25 52.0428 17.05C51.4228 17.83 51.1128 18.98 51.1128 20.5C51.1128 22.02 51.4228 23.18 52.0428 23.98C52.6628 24.76 53.5228 25.15 54.6228 25.15ZM65.6614 28V6.43H69.7714V15.55C70.2514 14.59 70.9114 13.88 71.7514 13.42C72.5914 12.94 73.5414 12.7 74.6014 12.7C75.6414 12.7 76.5614 12.9 77.3614 13.3C78.1814 13.7 78.8214 14.31 79.2814 15.13C79.7614 15.93 80.0014 16.94 80.0014 18.16V28H75.8914V19.36C75.8914 18.06 75.6414 17.17 75.1414 16.69C74.6414 16.19 74.0014 15.94 73.2214 15.94C72.6414 15.94 72.0814 16.08 71.5414 16.36C71.0214 16.62 70.5914 17.06 70.2514 17.68C69.9314 18.28 69.7714 19.08 69.7714 20.08V28H65.6614ZM91.8856 18.43C91.8856 17.57 91.6356 16.9 91.1356 16.42C90.6556 15.94 90.0156 15.7 89.2156 15.7C88.4756 15.7 87.8256 15.89 87.2656 16.27C86.7056 16.65 86.2956 17.28 86.0356 18.16L82.5256 17.08C82.8656 15.76 83.6056 14.7 84.7456 13.9C85.9056 13.1 87.4556 12.7 89.3956 12.7C90.7156 12.7 91.8656 12.91 92.8456 13.33C93.8256 13.73 94.5856 14.34 95.1256 15.16C95.6856 15.98 95.9656 17.01 95.9656 18.25V24.34C95.9656 25.1 96.3256 25.48 97.0456 25.48C97.3856 25.48 97.7056 25.43 98.0056 25.33L97.7656 27.88C97.2456 28.14 96.5956 28.27 95.8156 28.27C95.1156 28.27 94.4856 28.15 93.9256 27.91C93.3656 27.67 92.9256 27.31 92.6056 26.83C92.2856 26.33 92.1256 25.71 92.1256 24.97V24.85L92.8456 24.73C92.7256 25.49 92.3956 26.14 91.8556 26.68C91.3156 27.2 90.6556 27.6 89.8756 27.88C89.1156 28.16 88.3256 28.3 87.5056 28.3C86.4856 28.3 85.6056 28.15 84.8656 27.85C84.1256 27.53 83.5556 27.07 83.1556 26.47C82.7556 25.87 82.5556 25.13 82.5556 24.25C82.5556 23.13 82.9156 22.22 83.6356 21.52C84.3556 20.8 85.3856 20.31 86.7256 20.05L92.3656 18.91L92.3356 21.46L88.7356 22.18C88.0556 22.32 87.5356 22.51 87.1756 22.75C86.8356 22.97 86.6656 23.34 86.6656 23.86C86.6656 24.36 86.8456 24.74 87.2056 25C87.5856 25.26 88.0356 25.39 88.5556 25.39C88.9756 25.39 89.3856 25.34 89.7856 25.24C90.1856 25.14 90.5456 24.98 90.8656 24.76C91.1856 24.54 91.4356 24.24 91.6156 23.86C91.7956 23.48 91.8856 23.02 91.8856 22.48V18.43ZM99.6621 28V13H103.352L103.592 17.5L103.082 17.02C103.322 16.04 103.702 15.23 104.222 14.59C104.742 13.95 105.372 13.48 106.112 13.18C106.872 12.86 107.702 12.7 108.602 12.7C109.642 12.7 110.562 12.9 111.362 13.3C112.182 13.7 112.822 14.31 113.282 15.13C113.762 15.93 114.002 16.94 114.002 18.16V28H109.892V19.33C109.892 18.05 109.642 17.17 109.142 16.69C108.642 16.19 107.992 15.94 107.192 15.94C106.632 15.94 106.082 16.08 105.542 16.36C105.022 16.62 104.592 17.05 104.252 17.65C103.932 18.25 103.772 19.05 103.772 20.05V28H99.6621ZM119.406 23.41C120.206 23.41 120.836 23.63 121.296 24.07C121.776 24.51 122.016 25.1 122.016 25.84C122.016 26.6 121.776 27.2 121.296 27.64C120.836 28.06 120.206 28.27 119.406 28.27C118.606 28.27 117.966 28.06 117.486 27.64C117.026 27.2 116.796 26.6 116.796 25.84C116.796 25.1 117.026 24.51 117.486 24.07C117.966 23.63 118.606 23.41 119.406 23.41Z" fill="#072227"/>
<g clip-path="url(#clip0_647_100)">
<path d="M2.94105 18.9215L14.9041 11.0515C15.8767 10.1986 17.3443 10.3108 18.1817 11.3022C19.0191 12.2936 18.9093 13.7885 17.9366 14.6414L8.69164 20.3082L18.0307 25.9086C19.0175 26.7451 19.1521 28.238 18.3315 29.2432C17.5088 30.2506 16.0429 30.383 15.0585 29.5485L2.969 22.269C1.86302 21.3316 1.854 19.8746 2.94105 18.9215Z" fill="#4FBDBA"/>
</g>
<g clip-path="url(#clip1_647_100)">
<path d="M37.6267 18.8098L25.534 11.1407C24.5473 10.3042 23.0818 10.4408 22.261 11.4461C21.4403 12.4513 21.575 13.9442 22.5618 14.7807L31.9001 20.2924L22.6559 26.0479C21.6832 26.9008 21.5735 28.3957 22.4108 29.3871C23.2502 30.3806 24.7181 30.4885 25.6884 29.6377L37.6547 22.1573C38.7449 21.2016 38.7296 19.7447 37.6267 18.8098Z" fill="#35858B"/>
</g>
<defs>
<clipPath id="clip0_647_100">
<rect width="19.1294" height="20.0858" fill="white" transform="matrix(-0.999965 0.00834871 0.00834871 0.999965 19.1289 10.1779)"/>
</clipPath>
<clipPath id="clip1_647_100">
<rect width="19.1294" height="20.0858" fill="white" transform="translate(21.2959 10.3376) rotate(-0.478351)"/>
</clipPath>
</defs>
</svg>
