<svg width="29" height="34" viewBox="0 0 29 34" fill="none" xmlns="http://www.w3.org/2000/svg">
<g id="instagram" clip-path="url(#clip0_627_286)">
<path id="Vector" d="M14.5064 9.3633C10.3895 9.3633 7.06872 12.7699 7.06872 16.9934C7.06872 21.2168 10.3895 24.6235 14.5064 24.6235C18.6234 24.6235 21.9442 21.2168 21.9442 16.9934C21.9442 12.7699 18.6234 9.3633 14.5064 9.3633ZM14.5064 21.9539C11.846 21.9539 9.67095 19.7293 9.67095 16.9934C9.67095 14.2574 11.8395 12.0328 14.5064 12.0328C17.1734 12.0328 19.3419 14.2574 19.3419 16.9934C19.3419 19.7293 17.1669 21.9539 14.5064 21.9539ZM23.9832 9.0512C23.9832 10.0406 23.2064 10.8309 22.2484 10.8309C21.2839 10.8309 20.5136 10.034 20.5136 9.0512C20.5136 8.06838 21.2904 7.27151 22.2484 7.27151C23.2064 7.27151 23.9832 8.06838 23.9832 9.0512ZM28.9093 10.8574C28.7993 8.47346 28.2685 6.36174 26.566 4.6219C24.8701 2.88206 22.8116 2.33752 20.4877 2.21799C18.0926 2.07854 10.9138 2.07854 8.51872 2.21799C6.20131 2.33088 4.14283 2.87541 2.44037 4.61526C0.737919 6.3551 0.213588 8.46682 0.0970703 10.8508C-0.0388672 13.3078 -0.0388672 20.6723 0.0970703 23.1293C0.207115 25.5133 0.737919 27.625 2.44037 29.3649C4.14283 31.1047 6.19484 31.6492 8.51872 31.7688C10.9138 31.9082 18.0926 31.9082 20.4877 31.7688C22.8116 31.6559 24.8701 31.1113 26.566 29.3649C28.262 27.625 28.7928 25.5133 28.9093 23.1293C29.0453 20.6723 29.0453 13.3145 28.9093 10.8574ZM25.8151 25.7656C25.3102 27.0672 24.3328 28.0699 23.0576 28.5946C21.148 29.3715 16.6167 29.1922 14.5064 29.1922C12.3962 29.1922 7.85845 29.3649 5.95533 28.5946C4.68658 28.0766 3.70912 27.0738 3.19774 25.7656C2.44037 23.8067 2.61515 19.1582 2.61515 16.9934C2.61515 14.8285 2.44685 10.1735 3.19774 8.22112C3.70265 6.91956 4.68011 5.91682 5.95533 5.39221C7.86493 4.61526 12.3962 4.79456 14.5064 4.79456C16.6167 4.79456 21.1544 4.6219 23.0576 5.39221C24.3263 5.91018 25.3038 6.91291 25.8151 8.22112C26.5725 10.1801 26.3977 14.8285 26.3977 16.9934C26.3977 19.1582 26.5725 23.8133 25.8151 25.7656Z" fill="#35858B"/>
</g>
<defs>
<clipPath id="clip0_627_286">
<rect width="29" height="34" fill="white"/>
</clipPath>
</defs>
</svg>
