<svg width="26" height="30" viewBox="0 0 26 30" fill="none" xmlns="http://www.w3.org/2000/svg">
<g id="linkedin">
<path id="Vector" d="M24.1429 1.875H1.85134C0.829911 1.875 0 2.72461 0 3.76758V26.2324C0 27.2754 0.829911 28.125 1.85134 28.125H24.1429C25.1643 28.125 26 27.2754 26 26.2324V3.76758C26 2.72461 25.1643 1.875 24.1429 1.875ZM7.85804 24.375H4.00446V11.8477H7.86384V24.375H7.85804ZM5.93125 10.1367C4.69509 10.1367 3.69687 9.12305 3.69687 7.88086C3.69687 6.63867 4.69509 5.625 5.93125 5.625C7.16161 5.625 8.16562 6.63867 8.16562 7.88086C8.16562 9.12891 7.16741 10.1367 5.93125 10.1367ZM22.3031 24.375H18.4496V18.2812C18.4496 16.8281 18.4205 14.959 16.4473 14.959C14.4393 14.959 14.1317 16.541 14.1317 18.1758V24.375H10.2781V11.8477H13.975V13.5586H14.0272C14.5437 12.5742 15.8031 11.5371 17.6777 11.5371C21.5777 11.5371 22.3031 14.1328 22.3031 17.5078V24.375Z" fill="#35858B"/>
</g>
</svg>
