<svg width="41" height="21" viewBox="0 0 41 21" fill="none" xmlns="http://www.w3.org/2000/svg">
<g clip-path="url(#clip0_613_36)">
<path d="M2.94154 8.92146L14.9046 1.05149C15.8772 0.198632 17.3448 0.310793 18.1822 1.30219C19.0196 2.29359 18.9098 3.78855 17.9371 4.64141L8.69213 10.3082L18.0311 15.9086C19.018 16.7451 19.1526 18.238 18.332 19.2432C17.5093 20.2506 16.0434 20.383 15.059 19.5485L2.96949 12.269C1.86351 11.3316 1.85448 9.87459 2.94154 8.92146Z" fill="#4FBDBA"/>
</g>
<g clip-path="url(#clip1_613_36)">
<path d="M37.6277 8.80982L25.535 1.14069C24.5483 0.304193 23.0827 0.440842 22.262 1.44609C21.4413 2.45133 21.576 3.94424 22.5628 4.78074L31.9011 10.2924L22.6569 16.0479C21.6842 16.9008 21.5745 18.3957 22.4118 19.3871C23.2512 20.3806 24.7191 20.4885 25.6894 19.6377L37.6557 12.1573C38.7458 11.2016 38.7305 9.74467 37.6277 8.80982Z" fill="#35858B"/>
</g>
<defs>
<clipPath id="clip0_613_36">
<rect width="19.1294" height="20.0858" fill="white" transform="matrix(-0.999965 0.00834871 0.00834871 0.999965 19.1289 0.177795)"/>
</clipPath>
<clipPath id="clip1_613_36">
<rect width="19.1294" height="20.0858" fill="white" transform="translate(21.2964 0.337646) rotate(-0.478351)"/>
</clipPath>
</defs>
</svg>
