<svg width="1440" height="189" viewBox="0 0 1440 189" fill="none" xmlns="http://www.w3.org/2000/svg">
<path d="M0 0.199951L21.8 8.0912C43.6 15.6874 87 31.9125 131 35.6C174.5 39.2875 218 31.9125 262 23.8C305.5 15.6875 349 8.31245 393 31.6912C436.4 55.5125 480 110.087 524 122.109C567.3 133.687 611 102.712 655 90.6912C698.2 79.1124 742 86.4875 785 98.5087C829.1 110.087 873 126.312 916 114.291C960 102.712 1004 62.8874 1047 55.2912C1090.9 47.3999 1135 70.9999 1178 82.7999C1221.8 94.6 1265 94.6 1309 86.7087C1352.7 79.1124 1396 62.8874 1418 55.2912L1440 47.4V189H1418.2C1396.4 189 1353 189 1309 189C1265.5 189 1222 189 1178 189C1134.5 189 1091 189 1047 189C1003.6 189 960 189 916 189C872.7 189 829 189 785 189C741.8 189 698 189 655 189C610.9 189 567 189 524 189C480 189 436 189 393 189C349.1 189 305 189 262 189C218.2 189 175 189 131 189C87.3 189 44 189 22 189H0V0.199951Z" fill="#4FBDBA" fill-opacity="0.25"/>
</svg>
