<svg width="28" height="28" viewBox="0 0 28 28" fill="none" xmlns="http://www.w3.org/2000/svg">
<g clip-path="url(#clip0_622_312)">
<mask id="mask0_622_312" style="mask-type:luminance" maskUnits="userSpaceOnUse" x="0" y="0" width="28" height="28">
<path d="M0.824219 0.824097H27.1722V27.1721H0.824219V0.824097Z" fill="white"/>
</mask>
<g mask="url(#mask0_622_312)">
<path d="M27.1722 23.5127C27.1722 25.5342 25.5343 27.1721 23.5128 27.1721H4.48369C2.46295 27.1721 0.824219 25.5342 0.824219 23.5127V4.48356C0.824219 2.4621 2.46295 0.824097 4.48369 0.824097H23.5128C25.5343 0.824097 27.1722 2.4621 27.1722 4.48356V23.5127Z" fill="#673AB7"/>
</g>
<path d="M20.6071 15.1692C20.1314 14.5104 19.4434 14.0567 18.5578 13.8152C18.5578 13.8152 19.3044 13.5444 19.9777 12.5344C20.3802 11.8903 20.5851 11.1145 20.5851 10.207C20.5851 8.63342 20.0143 7.42578 18.8725 6.59876C17.7308 5.77174 16.4427 5.21545 14.2543 5.21545H7.41113V22.7808H15.0448C17.116 22.7661 18.6749 22.3197 19.7362 21.4634C20.7901 20.5925 21.3171 19.3043 21.3171 17.5844C21.3171 16.633 21.0829 15.8279 20.6071 15.1692ZM11.8025 8.14306C11.8025 8.14306 14.8545 8.14306 14.913 8.14306C16.0255 8.14306 16.9257 9.04321 16.9257 10.1557C16.9257 11.2682 16.0255 12.1684 14.913 12.1684C14.8545 12.1684 11.8025 12.1684 11.8025 12.1684V8.14306ZM15.4619 19.8533H11.8025V15.4619H15.4619C16.6769 15.4619 17.6576 16.4427 17.6576 17.6576C17.6576 18.8725 16.6769 19.8533 15.4619 19.8533Z" fill="white"/>
</g>
<defs>
<clipPath id="clip0_622_312">
<rect width="28" height="28" fill="white"/>
</clipPath>
</defs>
</svg>
