<svg width="28" height="28" viewBox="0 0 28 28" fill="none" xmlns="http://www.w3.org/2000/svg">
<mask id="mask0_622_250" style="mask-type:luminance" maskUnits="userSpaceOnUse" x="2" y="0" width="24" height="28">
<path d="M2.1123 0.717865H25.8843V27.2759H2.1123V0.717865Z" fill="white"/>
</mask>
<g mask="url(#mask0_622_250)">
<path d="M25.8811 0.717834H2.11621L4.21308 24.4803L13.9986 27.2758L23.7842 24.4803L25.8811 0.717834Z" fill="#0277BD"/>
</g>
<path d="M13.999 2.815V25.1097L21.8274 22.8732L23.5749 2.815H13.999Z" fill="#039BE5"/>
<path d="M20.3596 6.30936H13.999V9.10491H17.424L17.2143 11.9005H13.999V14.6961H17.0745L16.8648 17.8411L13.999 18.8195V21.7549L19.5209 19.9378L20.0101 11.9005L20.3596 6.30936Z" fill="white"/>
<path d="M13.9989 6.30936V9.10491H7.77807L7.56836 6.30936H13.9989ZM10.7836 11.9005L10.9234 14.6961H13.9989V11.9005H10.7836ZM11.0632 16.0938H8.26734L8.47705 19.9378L13.9989 21.7549V18.8195L11.1331 17.8411L11.0632 16.0938Z" fill="#EEEEEE"/>
</svg>
