<svg width="31" height="31" viewBox="0 0 31 31" fill="none" xmlns="http://www.w3.org/2000/svg">
<mask id="mask0_622_484" style="mask-type:luminance" maskUnits="userSpaceOnUse" x="0" y="1" width="31" height="29">
<path d="M0.814453 1.05383H30.187V29.9872H0.814453V1.05383Z" fill="white"/>
</mask>
<g mask="url(#mask0_622_484)">
<path d="M15.5007 1.05911C7.39025 1.05911 0.814453 7.63491 0.814453 15.7454C0.814453 22.6271 5.55325 28.3854 11.9418 29.9788C11.8732 29.7805 11.8291 29.5505 11.8291 29.2653V26.7551C11.2331 26.7551 10.2345 26.7551 9.98359 26.7551C8.97875 26.7551 8.08541 26.3231 7.65213 25.5203C7.17115 24.6281 7.08792 23.2635 5.89587 22.4288C5.54219 22.1511 5.81143 21.834 6.21903 21.8769C6.97167 22.0899 7.59586 22.6063 8.18325 23.3724C8.76829 24.1398 9.04366 24.3136 10.1366 24.3136C10.6665 24.3136 11.4596 24.283 12.2061 24.1655C12.6075 23.146 13.3015 22.2073 14.1495 21.7643C9.25905 21.2613 6.92517 18.8282 6.92517 15.5251C6.92517 14.1029 7.53096 12.7274 8.56025 11.5684C8.22248 10.418 7.79777 8.07181 8.68999 7.17838C10.8904 7.17838 12.2208 8.60543 12.5402 8.99091C13.6367 8.6152 14.8411 8.40224 16.1065 8.40224C17.3744 8.40224 18.5836 8.6152 19.6826 8.99334C19.9984 8.61028 21.3299 7.17838 23.5353 7.17838C24.4312 8.07302 24.0016 10.4289 23.6602 11.5769C24.6833 12.7334 25.2854 14.1054 25.2854 15.5251C25.2854 18.8258 22.9552 21.2576 18.072 21.7631C19.4158 22.4643 20.3961 24.4347 20.3961 25.9193V29.2653C20.3961 29.3925 20.3679 29.4843 20.3533 29.5932C26.0761 27.5874 30.187 22.1535 30.187 15.7454C30.187 7.63491 23.6112 1.05911 15.5007 1.05911Z" fill="black"/>
</g>
</svg>
