<svg width="31" height="29" viewBox="0 0 31 29" fill="none" xmlns="http://www.w3.org/2000/svg">
<path d="M15.4994 28.5552L21.2079 10.9882H9.79102L15.4994 28.5552Z" fill="#E24329"/>
<path d="M15.4995 28.5552L9.79109 10.9882H1.79199L15.4995 28.5552Z" fill="#FC6D26"/>
<path d="M1.79264 10.9882L0.0577524 16.3269C-0.0193082 16.5642 -0.0192494 16.8198 0.0579206 17.0571C0.13509 17.2943 0.285408 17.5011 0.487323 17.6477L15.5002 28.5597L1.79264 10.9882Z" fill="#FCA326"/>
<path d="M1.79199 10.9883H9.79109L6.35342 0.408412C6.31464 0.289966 6.23943 0.186804 6.13852 0.113659C6.03761 0.0405143 5.91617 0.00112915 5.79154 0.00112915C5.66691 0.00112915 5.54547 0.0405143 5.44456 0.113659C5.34365 0.186804 5.26844 0.289966 5.22967 0.408412L1.79199 10.9883Z" fill="#E24329"/>
<path d="M15.5 28.5552L21.2084 10.9882H29.2075L15.5 28.5552Z" fill="#FC6D26"/>
<path d="M29.2075 10.9882L30.9424 16.3269C31.0195 16.5642 31.0194 16.8198 30.9422 17.0571C30.8651 17.2943 30.7148 17.5011 30.5128 17.6477L15.5 28.5597L29.2075 10.9882Z" fill="#FCA326"/>
<path d="M29.2071 10.9882H21.208L24.6457 0.407282C24.6845 0.288837 24.7597 0.185675 24.8606 0.11253C24.9615 0.0393852 25.0829 0 25.2076 0C25.3322 0 25.4536 0.0393852 25.5545 0.11253C25.6554 0.185675 25.7307 0.288837 25.7694 0.407282L29.2071 10.9882Z" fill="#E24329"/>
</svg>
