<svg width="28" height="28" viewBox="0 0 28 28" fill="none" xmlns="http://www.w3.org/2000/svg">
<mask id="mask0_622_219" style="mask-type:luminance" maskUnits="userSpaceOnUse" x="2" y="0" width="24" height="28">
<path d="M2.21484 0.615692H25.7908V27.3837H2.21484V0.615692Z" fill="white"/>
</mask>
<g mask="url(#mask0_622_219)">
<path d="M4.35489 24.6992L2.20801 0.628052H25.7973L23.6488 24.6959L13.9876 27.372L4.35489 24.6992Z" fill="#E44D26"/>
</g>
<path d="M21.8089 23.1633L23.6456 2.59653H14.0029V25.3271L21.8089 23.1633Z" fill="#F16529"/>
<path d="M13.9932 5.54849H6.59766L7.39442 14.4762H14.0032V11.5242H10.0956L9.82553 8.50125H14.0032V5.54849H13.9932ZM14.0032 19.1816L13.9907 19.1849L10.7017 18.2974L10.4927 15.943H7.52647L7.94034 20.5782L13.9898 22.2498L14.0032 22.2455V19.1816Z" fill="#EBEBEB"/>
<path d="M13.9929 14.4762H17.6296L17.2952 18.304L14.0013 19.1924V22.2639L20.0558 20.5865L20.8667 11.5226H14.003L13.9929 14.4762ZM21.3198 6.3408L21.3901 5.54849H13.9912V8.50038H21.1242L21.1828 7.83684L21.3198 6.3408Z" fill="white"/>
</svg>
