<svg width="28" height="29" viewBox="0 0 28 29" fill="none" xmlns="http://www.w3.org/2000/svg">
<g clip-path="url(#clip0_622_271)">
<mask id="mask0_622_271" style="mask-type:luminance" maskUnits="userSpaceOnUse" x="0" y="0" width="28" height="29">
<path d="M0.857422 0.888031H27.1494V28.119H0.857422V0.888031Z" fill="white"/>
</mask>
<g mask="url(#mask0_622_271)">
<path d="M0.857422 0.888031H27.1494V28.119H0.857422V0.888031Z" fill="#FFD600"/>
</g>
<path d="M18.0483 21.2711C18.5537 22.1213 19.1029 22.9359 20.2662 22.9359C21.2435 22.9359 21.7562 22.4329 21.7562 21.737C21.7562 20.9042 21.2259 20.6084 20.1509 20.1236L19.5615 19.8633C17.8605 19.1161 16.7293 18.1796 16.7293 16.2016C16.7293 14.3786 18.0767 12.9913 20.1822 12.9913C21.6816 12.9913 22.7589 13.5291 23.536 14.9376L21.6999 16.1532C21.296 15.4058 20.8593 15.1116 20.1822 15.1116C19.4914 15.1116 19.0539 15.5631 19.0539 16.1532C19.0539 16.8823 19.4921 17.1774 20.5036 17.6289L21.093 17.8892C23.0977 18.7734 24.2283 19.6765 24.2283 21.7067C24.2283 23.8943 22.5602 25.0932 20.321 25.0932C18.1307 25.0932 16.887 23.9548 16.1947 22.5456L18.0483 21.2711ZM9.58658 21.3331C9.95612 22.0184 10.5178 22.5456 11.3255 22.5456C12.0982 22.5456 12.543 22.2294 12.543 21.0002V12.9906H14.9772V21.3876C14.9772 23.9344 13.5508 25.0932 11.4679 25.0932C9.58585 25.0932 8.22741 23.7725 7.67383 22.5456L9.58658 21.3331Z" fill="#000001"/>
</g>
<defs>
<clipPath id="clip0_622_271">
<rect width="28" height="29" fill="white"/>
</clipPath>
</defs>
</svg>
