<svg width="31" height="33" viewBox="0 0 31 33" fill="none" xmlns="http://www.w3.org/2000/svg">
<g clip-path="url(#clip0_622_419)">
<path d="M30.9826 7.45242C30.9941 7.4963 31 7.54155 31 7.58705V14.658C31 14.8428 30.9043 15.0134 30.749 15.1053L24.9998 18.5224V25.2949C24.9998 25.3855 24.9768 25.4746 24.9329 25.5531C24.8891 25.6316 24.8261 25.6969 24.7501 25.7423L12.7487 32.8739C12.7213 32.8899 12.6914 32.9002 12.6613 32.9113C12.6501 32.915 12.6395 32.9222 12.6277 32.9254C12.5438 32.9482 12.4556 32.9482 12.3717 32.9254C12.3579 32.9217 12.3454 32.9138 12.3323 32.9087C12.3048 32.8983 12.2761 32.8893 12.25 32.8739L0.251027 25.7422C0.17478 25.697 0.111423 25.6319 0.06735 25.5533C0.0232767 25.4748 4.54541e-05 25.3857 0 25.2949L0 4.08192C0 4.03542 0.00629687 3.9903 0.0174375 3.94655C0.0211914 3.93167 0.0299102 3.91817 0.0349961 3.9033C0.0443203 3.8763 0.0531602 3.84855 0.0668437 3.82342C0.076168 3.80667 0.0898516 3.79317 0.101113 3.77767C0.115523 3.75705 0.128602 3.7358 0.145434 3.71767C0.159844 3.70292 0.178613 3.69192 0.19484 3.67905C0.213004 3.66355 0.229109 3.6468 0.249695 3.63455H0.250301L6.25001 0.0687963C6.32599 0.0236628 6.41211 -9.15527e-05 6.49977 -9.15527e-05C6.58743 -9.15527e-05 6.67355 0.0236628 6.74952 0.0687963L12.7492 3.63455H12.7504C12.7704 3.64755 12.7874 3.66355 12.8054 3.67842C12.8216 3.6913 12.8398 3.70292 12.8541 3.71717C12.8717 3.7358 12.8841 3.75717 12.899 3.77767C12.9097 3.79317 12.9241 3.80667 12.9328 3.82342C12.9471 3.84917 12.9552 3.8763 12.9653 3.90342C12.9702 3.91817 12.9789 3.93167 12.9827 3.94717C12.9942 3.99105 13.0001 4.03642 13.0003 4.08192V17.3312L17.9997 14.3595V7.58642C17.9997 7.54142 18.006 7.49555 18.0173 7.45242C18.0217 7.43692 18.0298 7.42342 18.0347 7.40867C18.0448 7.38155 18.0535 7.35367 18.0672 7.32867C18.0765 7.31192 18.0902 7.29842 18.101 7.28292C18.1159 7.2623 18.1283 7.24105 18.1458 7.22292C18.1603 7.20817 18.1784 7.19717 18.1946 7.1843C18.2133 7.1688 18.2296 7.15205 18.2496 7.1398H18.2502L24.2505 3.57405C24.3264 3.52885 24.4126 3.50506 24.5002 3.50506C24.5879 3.50506 24.674 3.52885 24.75 3.57405L30.7497 7.1398C30.7709 7.15267 30.7871 7.1688 30.8059 7.18355C30.8214 7.19655 30.8396 7.20817 30.854 7.2223C30.8714 7.24105 30.8839 7.2623 30.8988 7.28292C30.9101 7.29842 30.9238 7.31192 30.9327 7.32867C30.947 7.35367 30.9551 7.38155 30.965 7.40867C30.9707 7.42342 30.9788 7.43692 30.9826 7.45242ZM29.9999 14.3597V8.47967L27.9002 9.7273L24.9997 11.4513V17.3313L30.0005 14.3597H29.9999ZM24.0002 24.9965V19.1124L21.147 20.7945L12.9997 25.5945V31.5338L24.0002 24.9963V24.9965ZM1.00011 4.97442V24.9965L11.9994 31.5333V25.5952L6.25328 22.2382L6.25146 22.2369L6.24904 22.2357C6.22967 22.224 6.21332 22.2073 6.19528 22.1932C6.17953 22.1802 6.16149 22.1699 6.14781 22.1557L6.1466 22.1538C6.13037 22.1377 6.11911 22.1177 6.10543 22.0997C6.09283 22.0822 6.07794 22.0674 6.06789 22.0494L6.06728 22.0474C6.05602 22.0282 6.04912 22.0049 6.041 21.983C6.03289 21.9637 6.02236 21.9455 6.01727 21.925V21.9244C6.01109 21.8999 6.00988 21.874 6.00734 21.8489C6.00492 21.8297 5.99983 21.8103 5.99983 21.7909V7.94617L3.09976 6.22142L1.00011 4.97517V4.97442ZM6.50043 1.11155L1.50144 4.08192L6.49922 7.05217L11.4975 4.08117L6.49922 1.11155H6.50043ZM9.10007 19.6488L12 17.9255V4.97442L9.90063 6.22217L6.99982 7.94605V20.897L9.10007 19.6488ZM24.5002 4.6168L19.5019 7.58705L24.5002 10.5574L29.4978 7.58642L24.5003 4.6168H24.5002ZM24.0001 11.4513L21.0995 9.7273L19 8.47967V14.3597L21.8999 16.083L24.0002 17.3313V11.4513H24.0001ZM12.4989 24.702L19.8303 20.3815L23.4951 18.2225L18.5005 15.2542L12.7498 18.6717L7.50866 21.7864L12.4989 24.702Z" fill="#FF2D20"/>
</g>
<defs>
<clipPath id="clip0_622_419">
<rect width="31" height="33" fill="white"/>
</clipPath>
</defs>
</svg>
