<svg width="40" height="40" viewBox="0 0 40 40" fill="none" xmlns="http://www.w3.org/2000/svg">
<path d="M22.7201 7.82623C21.401 6.26937 20.266 4.67839 20.0343 4.35531C20.0295 4.34852 20.0231 4.34298 20.0157 4.33916C20.0082 4.33534 20 4.33334 19.9917 4.33334C19.9833 4.33334 19.9751 4.33534 19.9677 4.33916C19.9602 4.34298 19.9538 4.34852 19.949 4.35531C19.7186 4.68204 18.5835 6.27303 17.2669 7.82988C5.96415 22.2219 19.048 31.9349 19.048 31.9349L19.1541 32.0092C19.2541 33.5112 19.5003 35.6667 19.5003 35.6667H20.4842C20.4842 35.6667 20.728 33.5161 20.8292 32.0092L20.9365 31.9251C20.9365 31.9251 34.0204 22.2219 22.7201 7.82623ZM19.9929 31.7215C19.9929 31.7215 19.4065 31.2217 19.248 30.9705V30.9437L19.9575 15.2703C19.9591 15.2616 19.9637 15.2538 19.9705 15.2481C19.9773 15.2424 19.9859 15.2393 19.9947 15.2393C20.0036 15.2393 20.0121 15.2424 20.0189 15.2481C20.0257 15.2538 20.0303 15.2616 20.0319 15.2703L20.7439 30.9461V30.973C20.5854 31.2168 19.999 31.724 19.999 31.724" fill="#00684A"/>
</svg>
