<svg width="39" height="38" viewBox="0 0 39 38" fill="none" xmlns="http://www.w3.org/2000/svg">
<mask id="mask0_622_395" style="mask-type:luminance" maskUnits="userSpaceOnUse" x="0" y="21" width="17" height="8">
<path d="M0.806641 21.3054H16.2506V28.6373H0.806641V21.3054Z" fill="white"/>
</mask>
<g mask="url(#mask0_622_395)">
<path d="M0.830078 26.9727H2.0603V22.239L3.9648 26.3672C4.18946 26.8648 4.4972 27.0436 5.10038 27.0436C5.70355 27.0436 5.9993 26.8668 6.22427 26.3672L8.12897 22.239V26.9745H9.3594V22.2468C9.3594 21.7857 9.16968 21.5626 8.77948 21.4474C7.8451 21.163 7.21805 21.4091 6.93429 22.024L5.06534 26.0981L3.25519 22.0222C2.9831 21.4073 2.34438 21.1613 1.4099 21.4457C1.01939 21.561 0.830078 21.784 0.830078 22.2451V26.9727ZM10.3819 23.1185H11.6118V25.7275C11.6003 25.8694 11.6584 26.2021 12.3323 26.2122C12.6762 26.2175 14.9861 26.2122 15.0076 26.2122V23.1055H16.2402C16.2456 23.1055 16.2388 27.3415 16.239 27.3596C16.2457 28.4043 14.9091 28.6313 14.2932 28.6488H10.4087V27.842L14.3001 27.8418C15.0918 27.7601 14.9985 27.3767 14.9985 27.2475V26.9329H12.3837C11.1672 26.9222 10.3927 26.4045 10.3829 25.8091C10.382 25.7558 10.4093 23.144 10.3822 23.1183L10.3819 23.1185Z" fill="#00618A"/>
</g>
<path d="M17.1878 26.973H20.7247C21.1387 26.973 21.5411 26.8886 21.8607 26.7423C22.3931 26.5041 22.6533 26.1812 22.6533 25.7584V24.8822C22.6533 24.5362 22.3575 24.2135 21.7781 23.9982C21.4705 23.8826 21.092 23.8214 20.7253 23.8214H19.2347C18.7381 23.8214 18.5013 23.6752 18.4423 23.3525C18.4304 23.3141 18.4304 23.2814 18.4304 23.2448V22.6991C18.4304 22.6684 18.4304 22.6374 18.4423 22.599C18.5013 22.3531 18.6315 22.2838 19.0691 22.2436C19.1047 22.2436 19.1519 22.2358 19.1877 22.2358H22.7009V21.4366H19.2468C18.7498 21.4366 18.4897 21.4673 18.253 21.5364C17.5186 21.7595 17.1991 22.1149 17.1991 22.7299V23.4294C17.1991 23.9676 17.8263 24.4288 18.8788 24.5364C18.9973 24.544 19.1155 24.5516 19.2336 24.5516H20.5112C20.5587 24.5516 20.6061 24.5516 20.6414 24.5594C21.0316 24.5902 21.1976 24.6594 21.3157 24.7976C21.3886 24.8687 21.4105 24.9362 21.4105 25.0109V25.7104C21.4105 25.795 21.3515 25.9028 21.2331 25.9948C21.1266 26.0872 20.9492 26.1485 20.7125 26.164C20.6651 26.164 20.6298 26.1716 20.5825 26.1716H17.1875V26.971L17.1878 26.973ZM30.3277 25.5818C30.3277 26.4043 30.9545 26.8655 32.2203 26.9578C32.3384 26.9667 32.4566 26.9717 32.575 26.973H35.7809V26.1736H32.5514C31.8299 26.1736 31.5577 25.9968 31.5577 25.5739V21.4382H30.3275V25.5814L30.3277 25.5818ZM23.4381 25.6233V22.7734C23.4381 22.0493 23.9596 21.6102 24.9909 21.4715C25.1009 21.4562 25.2116 21.4486 25.3229 21.4485H27.6581C27.7733 21.4486 27.8878 21.4562 28.002 21.4715C29.0332 21.6102 29.5547 22.0491 29.5547 22.7734V25.6233C29.5547 26.2107 29.3332 26.5251 28.8226 26.7301L30.0344 27.7964H28.606L27.6256 26.9337L26.6386 26.9947H25.3229C25.0977 26.9947 24.8606 26.9638 24.5997 26.8944C23.8157 26.6865 23.4383 26.2859 23.4383 25.6233H23.4381ZM24.766 25.5523C24.766 25.5909 24.7779 25.6293 24.7898 25.6756C24.8627 26.0069 25.1809 26.1917 25.6649 26.1917H26.7826L25.7561 25.2883H27.1845L28.0779 26.0762C28.243 25.9905 28.3515 25.8593 28.3879 25.6911C28.3998 25.6527 28.3998 25.6141 28.3998 25.5755V22.8429C28.3998 22.8122 28.3998 22.7718 28.3879 22.735C28.315 22.4271 27.9966 22.2498 27.5226 22.2498H25.6682C25.1213 22.2498 24.7675 22.4809 24.7675 22.8429V25.5543L24.766 25.5523Z" fill="#E48E00"/>
<path d="M36.8631 20.1117C36.107 20.0918 35.5292 20.1602 35.0354 20.3631C34.8951 20.4209 34.6713 20.4223 34.6484 20.5938C34.7254 20.6726 34.7376 20.7902 34.7988 20.8871C34.9167 21.0731 35.116 21.3225 35.2934 21.4529C35.4874 21.5957 35.6872 21.7485 35.8956 21.8724C36.2658 22.0924 36.679 22.2181 37.0353 22.4384C37.2453 22.5681 37.4539 22.7316 37.6589 22.8783C37.76 22.9509 37.8284 23.0636 37.9597 23.1089V23.0879C37.8904 23.002 37.8728 22.8841 37.8093 22.7947L37.5298 22.5222C37.2563 22.1667 36.9094 21.8581 36.5406 21.5998C36.2464 21.394 35.588 21.116 35.4653 20.7822L35.4438 20.7612C35.6524 20.7382 35.8966 20.6647 36.0893 20.6147C36.4126 20.5302 36.7015 20.5519 37.0356 20.468L37.4872 20.3421V20.2583C37.3184 20.0894 37.1981 19.866 37.0142 19.7134C36.5327 19.3135 36.0071 18.9145 35.466 18.5812C35.1659 18.3964 34.7951 18.2766 34.4769 18.12C34.3699 18.0674 34.1819 18.0401 34.1113 17.9522C33.9443 17.7447 33.8533 17.4813 33.7244 17.2413C33.4546 16.7348 33.1894 16.1813 32.9502 15.6483C32.787 15.2849 32.6804 14.9263 32.4773 14.6002C31.5008 13.0354 30.4497 12.091 28.8218 11.163C28.4754 10.9656 28.0584 10.8875 27.6175 10.7856L26.9078 10.7437C26.7635 10.685 26.6131 10.5126 26.4776 10.4291C25.9382 10.0967 24.5548 9.37459 24.1553 10.3224C23.9031 10.9219 24.5321 11.5068 24.7574 11.8107C24.9152 12.024 25.1176 12.2627 25.2304 12.5025C25.3045 12.6599 25.3175 12.8179 25.381 12.9847C25.5372 13.3935 25.6732 13.8419 25.8754 14.2213C25.9776 14.4132 26.0902 14.6155 26.2195 14.7872C26.2988 14.8926 26.4347 14.939 26.456 15.1018C26.3233 15.2831 26.3156 15.5638 26.2408 15.7935C25.9048 16.8264 26.0315 18.1102 26.5203 18.8748C26.6704 19.1094 27.0236 19.6127 27.5095 19.4197C27.9344 19.2509 27.8378 18.7283 27.9612 18.267C27.9885 18.1621 27.9717 18.0857 28.0257 18.0155V18.0365L28.4128 18.791C28.6991 19.2406 29.2078 19.7107 29.6385 20.0279C29.8618 20.1923 30.0397 20.4767 30.3266 20.5729V20.5519H30.3051C30.2491 20.4666 30.1616 20.4316 30.0899 20.3635C29.9216 20.2026 29.7344 20.0027 29.5952 19.8185C29.2033 19.2999 28.8572 18.7327 28.5417 18.1417C28.3911 17.8597 28.26 17.5484 28.1333 17.2614C28.0845 17.1506 28.085 16.9834 27.9829 16.926C27.8438 17.1365 27.6388 17.3064 27.5313 17.5548C27.3591 17.9519 27.3369 18.436 27.2732 18.9383C27.2355 18.9514 27.2523 18.9424 27.2302 18.9593C26.9308 18.8888 26.8254 18.5883 26.7142 18.3304C26.4327 17.6782 26.3806 16.6285 26.6282 15.8781C26.692 15.6841 26.9818 15.0723 26.8646 14.8929C26.8086 14.714 26.6239 14.6086 26.5205 14.4735C26.393 14.3047 26.2649 14.0817 26.1765 13.8866C25.946 13.3783 25.8384 12.8078 25.5959 12.2937C25.48 12.048 25.2841 11.7996 25.1229 11.5827C24.9447 11.341 24.745 11.1626 24.607 10.8718C24.5577 10.7678 24.491 10.6017 24.5639 10.4945C24.5674 10.4791 24.5731 10.4644 24.5808 10.4507C24.5886 10.4368 24.5981 10.4243 24.6096 10.4132C24.621 10.4021 24.6339 10.3927 24.648 10.385C24.6622 10.3775 24.6773 10.372 24.693 10.3686C24.8177 10.275 25.1653 10.3997 25.2951 10.4525C25.6397 10.5923 25.9278 10.7252 26.2199 10.9138C26.3602 11.0026 26.5019 11.1796 26.6713 11.2283H26.8646C27.1673 11.2963 27.5065 11.2496 27.789 11.3332C28.289 11.4812 28.7368 11.7118 29.1438 11.962C30.3833 12.7248 31.3965 13.8108 32.0898 15.1078C32.2014 15.3163 32.2496 15.5155 32.3478 15.7366C32.546 16.1809 32.7957 16.6418 32.9929 17.078C33.1898 17.5134 33.3813 17.9524 33.6595 18.3146C33.8058 18.5048 34.3706 18.6072 34.6271 18.7127C34.8071 18.7868 35.1017 18.8642 35.2723 18.9642C35.5978 19.1556 35.9132 19.3836 36.2186 19.5934C36.3712 19.6982 36.8404 19.9281 36.8636 20.1173L36.8631 20.1117Z" fill="#00618A"/>
<path fill-rule="evenodd" clip-rule="evenodd" d="M27.2524 12.1261C27.0947 12.1233 26.9832 12.1428 26.8652 12.168V12.189H26.8868C26.9619 12.3397 27.0947 12.4366 27.1877 12.5664L27.4028 13.0064L27.4243 12.9854C27.5574 12.8939 27.6185 12.7476 27.6176 12.5242C27.5642 12.4695 27.5564 12.4009 27.5101 12.3355C27.4486 12.2484 27.3276 12.199 27.252 12.1258L27.2524 12.1261Z" fill="#00618A"/>
<path fill-rule="evenodd" clip-rule="evenodd" d="M36.3594 26.1509C36.3594 26.6788 36.7874 27.0346 37.2659 27.0346C37.7446 27.0346 38.1725 26.6788 38.1725 26.1509C38.1725 25.6231 37.7446 25.2672 37.2659 25.2672C36.7874 25.2672 36.3594 25.6231 36.3594 26.1509ZM37.9694 26.1509C37.9694 26.5515 37.6552 26.8509 37.2656 26.8509C36.8718 26.8509 36.5618 26.5515 36.5618 26.1509C36.5618 25.7504 36.8714 25.451 37.2656 25.451C37.6549 25.451 37.9694 25.7504 37.9694 26.1509ZM37.5099 26.6553H37.7129L37.4156 26.2124C37.5752 26.1959 37.6959 26.1204 37.6959 25.9366C37.6959 25.7315 37.5628 25.6468 37.3067 25.6468H36.9029V26.6555H37.077V26.2195H37.239L37.5098 26.6555L37.5099 26.6553ZM37.077 26.0777V25.788H37.2776C37.3816 25.788 37.5073 25.8069 37.5073 25.9248C37.5073 26.0661 37.3938 26.0781 37.2631 26.0781H37.077V26.0777Z" fill="#E48E00"/>
</svg>
