<svg width="39" height="39" viewBox="0 0 39 39" fill="none" xmlns="http://www.w3.org/2000/svg">
<mask id="mask0_622_355" style="mask-type:luminance" maskUnits="userSpaceOnUse" x="0" y="9" width="39" height="21">
<path d="M0.618164 9.6976H38.3897V29.3016H0.618164V9.6976Z" fill="white"/>
</mask>
<g mask="url(#mask0_622_355)">
<mask id="mask1_622_355" style="mask-type:luminance" maskUnits="userSpaceOnUse" x="0" y="9" width="39" height="21">
<path d="M0.618164 19.503C0.618164 24.9133 9.07375 29.2995 19.5034 29.2995C29.9331 29.2995 38.3886 24.9133 38.3886 19.503C38.3886 14.0926 29.9331 9.70654 19.5034 9.70654C9.07375 9.70654 0.618164 14.0928 0.618164 19.503Z" fill="white"/>
</mask>
<g mask="url(#mask1_622_355)">
<mask id="mask2_622_355" style="mask-type:luminance" maskUnits="userSpaceOnUse" x="0" y="9" width="39" height="21">
<path d="M0.618164 19.5024C0.618164 24.9127 9.07375 29.2989 19.5034 29.2989C29.9331 29.2989 38.3886 24.9127 38.3886 19.5024C38.3886 14.0921 29.9331 9.70599 19.5034 9.70599C9.07375 9.70599 0.618164 14.0923 0.618164 19.5024Z" fill="white"/>
</mask>
<g mask="url(#mask2_622_355)">
<path d="M0.618164 9.70599V29.2989H38.3886V9.70599H0.618164Z" fill="url(#paint0_radial_622_355)"/>
</g>
</g>
</g>
<path d="M19.503 28.5718C29.5256 28.5718 37.6506 24.5116 37.6506 19.5028C37.6506 14.4942 29.5256 10.4339 19.503 10.4339C9.48047 10.4339 1.35547 14.4942 1.35547 19.5028C1.35547 24.5116 9.48047 28.5718 19.503 28.5718Z" fill="#777BB3"/>
<path d="M10.8785 20.6266C11.7027 20.6266 12.3178 20.4768 12.707 20.1815C13.0921 19.8891 13.3581 19.3825 13.4976 18.6758C13.6276 18.0152 13.578 17.554 13.3504 17.3052C13.1177 17.051 12.6146 16.922 11.855 16.922H10.538L9.8079 20.6267H10.8785V20.6266ZM6.5711 25.1903C6.50996 25.1903 6.45197 25.1634 6.41307 25.1168C6.39357 25.0934 6.38006 25.0672 6.37255 25.038C6.36503 25.0087 6.36422 24.9793 6.37001 24.9497L8.30498 15.1324C8.30721 15.1209 8.31046 15.1098 8.31473 15.099C8.31889 15.0881 8.32397 15.0776 8.33006 15.0676C8.33606 15.0576 8.34296 15.0482 8.35058 15.0394C8.3583 15.0305 8.36673 15.0224 8.37577 15.0151C8.38491 15.0077 8.39456 15.0011 8.40492 14.9953C8.41517 14.9896 8.42584 14.9847 8.43691 14.9808C8.44798 14.9769 8.45935 14.9738 8.47103 14.9719C8.48261 14.9699 8.49439 14.9689 8.50617 14.9689H12.6765C13.9872 14.9689 14.9627 15.3192 15.5759 16.012C16.1923 16.7078 16.3828 17.6806 16.1416 18.903C16.0435 19.4011 15.8748 19.8636 15.6403 20.2778C15.4053 20.6924 15.0949 21.076 14.7175 21.4182C14.2656 21.8352 13.7541 22.1377 13.1987 22.3156C12.652 22.4912 11.9501 22.5804 11.1121 22.5804H9.42339L8.94117 25.0269C8.93883 25.0383 8.93568 25.0495 8.93142 25.0603C8.92725 25.0712 8.92217 25.0817 8.91608 25.0916C8.91009 25.1017 8.90318 25.1111 8.89556 25.1199C8.88785 25.1288 8.87942 25.1369 8.87038 25.1442C8.86124 25.1516 8.85159 25.1582 8.84133 25.164C8.83107 25.1697 8.82041 25.1746 8.80924 25.1785C8.79817 25.1825 8.78679 25.1855 8.77521 25.1875C8.76353 25.1894 8.75185 25.1904 8.74007 25.1904H6.5706L6.5711 25.1903Z" fill="black"/>
<path d="M10.7066 17.1243H11.8547C12.7714 17.1243 13.0899 17.3228 13.198 17.4409C13.3776 17.6372 13.4114 18.0511 13.2961 18.6377C13.1665 19.2944 12.9262 19.7601 12.5818 20.0215C12.2291 20.2892 11.6559 20.4249 10.8783 20.4249H10.0565L10.7069 17.1243H10.7066ZM12.6759 14.7669H8.50575C8.48219 14.7669 8.45873 14.7689 8.43557 14.7729C8.41232 14.7768 8.38957 14.7828 8.36732 14.7906C8.34508 14.7986 8.32375 14.8082 8.30324 14.8197C8.28272 14.8313 8.26332 14.8444 8.24514 14.8592C8.22696 14.874 8.21011 14.8903 8.19477 14.9078C8.17943 14.9255 8.16572 14.9444 8.15364 14.9644C8.14155 14.9844 8.13129 15.0052 8.12296 15.027C8.11454 15.0487 8.10804 15.0711 8.10357 15.0939L6.1686 24.9119C6.16575 24.9265 6.16372 24.9412 6.1625 24.9559C6.16129 24.9708 6.16088 24.9856 6.16129 25.0004C6.16169 25.0153 6.16301 25.0301 6.16504 25.0448C6.16718 25.0595 6.17002 25.074 6.17378 25.0885C6.17743 25.1029 6.182 25.117 6.18729 25.1309C6.19257 25.1448 6.19856 25.1584 6.20536 25.1716C6.21217 25.185 6.21979 25.1978 6.22801 25.2101C6.23624 25.2226 6.24518 25.2345 6.25472 25.246C6.26427 25.2575 6.27453 25.2684 6.28529 25.2787C6.29606 25.2891 6.30743 25.2988 6.31932 25.3079C6.3312 25.3171 6.34359 25.3255 6.35639 25.3333C6.36929 25.3411 6.38249 25.3482 6.3961 25.3545C6.40971 25.3608 6.42362 25.3663 6.43794 25.3712C6.45216 25.376 6.46668 25.3801 6.48131 25.3833C6.49604 25.3866 6.51086 25.389 6.52589 25.3906C6.54082 25.3922 6.55586 25.3931 6.57089 25.3931H8.73965C8.76321 25.3931 8.78668 25.3911 8.80993 25.3871C8.83319 25.3831 8.85594 25.3772 8.87808 25.3693C8.90032 25.3615 8.92165 25.3518 8.94217 25.3402C8.96268 25.3288 8.98208 25.3157 9.00026 25.3008C9.01854 25.286 9.0353 25.2698 9.05064 25.2521C9.06607 25.2344 9.07979 25.2156 9.09187 25.1956C9.10396 25.1756 9.11411 25.1547 9.12254 25.133C9.13097 25.1112 9.13747 25.089 9.14194 25.0661L9.59196 22.783H11.1117C11.9712 22.783 12.6947 22.6906 13.262 22.5084C13.8453 22.3215 14.3823 22.0045 14.8573 21.5665C15.2501 21.21 15.5744 20.8099 15.819 20.3771C16.0635 19.9443 16.2404 19.4615 16.3427 18.9423C16.5965 17.6555 16.3904 16.6251 15.7301 15.8798C15.0762 15.1417 14.0487 14.7675 12.6763 14.7675M9.55936 20.8296H10.8786C11.7529 20.8296 12.4042 20.6674 12.8321 20.3424C13.26 20.0175 13.5487 19.4751 13.6987 18.7152C13.8423 17.9856 13.7769 17.4708 13.5027 17.1708C13.2285 16.8707 12.679 16.7207 11.8552 16.7207H10.3692L9.55946 20.8295M12.6764 15.1716C13.931 15.1716 14.8462 15.4962 15.4216 16.1456C15.9968 16.7949 16.17 17.7013 15.9404 18.8651C15.846 19.3445 15.6862 19.7827 15.4613 20.18C15.2363 20.5771 14.942 20.9406 14.5786 21.27C14.1455 21.6697 13.6645 21.9544 13.1351 22.1242C12.6057 22.2942 11.9316 22.3789 11.1118 22.3789H9.25427L8.73986 24.9889H6.57119L8.50626 15.1723H12.6767" fill="white"/>
<path d="M21.1144 22.5803C21.0531 22.5803 20.9951 22.5534 20.9563 22.5068C20.9174 22.4602 20.9015 22.399 20.9133 22.3397L21.7691 17.9959C21.8506 17.5828 21.8305 17.2863 21.7127 17.1609C21.6406 17.0844 21.4238 16.956 20.7832 16.956H19.2325L18.1564 22.4167C18.1541 22.4282 18.1509 22.4393 18.1467 22.4502C18.1424 22.4611 18.1374 22.4715 18.1314 22.4815C18.1253 22.4915 18.1185 22.5009 18.1108 22.5097C18.103 22.5186 18.0947 22.5267 18.0856 22.5341C18.0764 22.5415 18.0668 22.5481 18.0565 22.5539C18.0463 22.5596 18.0356 22.5645 18.0244 22.5684C18.0134 22.5723 18.002 22.5753 17.9904 22.5773C17.9787 22.5793 17.967 22.5803 17.9552 22.5803H15.8036C15.7884 22.5803 15.7735 22.5787 15.7588 22.5754C15.744 22.5722 15.7298 22.5673 15.7162 22.561C15.7025 22.5546 15.6897 22.5469 15.6777 22.5378C15.6658 22.5286 15.6551 22.5183 15.6454 22.5068C15.6359 22.4953 15.6277 22.4829 15.6207 22.4696C15.6139 22.4563 15.6087 22.4424 15.605 22.428C15.6012 22.4135 15.5992 22.3988 15.5987 22.384C15.5983 22.3691 15.5995 22.3543 15.6024 22.3397L17.5373 12.5224C17.5397 12.5109 17.5428 12.4998 17.5471 12.489C17.5512 12.478 17.5564 12.4676 17.5624 12.4576C17.5685 12.4476 17.5753 12.4382 17.583 12.4293C17.5907 12.4205 17.5991 12.4124 17.6082 12.405C17.6173 12.3977 17.627 12.3911 17.6373 12.3853C17.6475 12.3796 17.6582 12.3747 17.6693 12.3707C17.6804 12.3668 17.6918 12.3638 17.7034 12.3619C17.7151 12.3599 17.7267 12.3589 17.7385 12.3589H19.8902C19.9053 12.3589 19.9202 12.3605 19.935 12.3637C19.9497 12.367 19.964 12.3719 19.9776 12.3782C19.9913 12.3846 20.0041 12.3923 20.016 12.4014C20.028 12.4106 20.0387 12.4209 20.0483 12.4324C20.0579 12.4439 20.0661 12.4563 20.0729 12.4696C20.0797 12.4829 20.085 12.4968 20.0888 12.5112C20.0925 12.5256 20.0946 12.5402 20.095 12.5552C20.0955 12.5701 20.0943 12.5848 20.0913 12.5995L19.6244 14.969H21.2926C22.5634 14.969 23.4251 15.1899 23.9271 15.6444C24.4394 16.1081 24.5984 16.8494 24.4016 17.8484L23.5014 22.4169C23.4992 22.4283 23.4959 22.4394 23.4917 22.4503C23.4875 22.4612 23.4824 22.4716 23.4763 22.4817C23.4703 22.4916 23.4634 22.5011 23.4558 22.5099C23.4481 22.5188 23.4396 22.5269 23.4306 22.5343C23.4215 22.5417 23.4118 22.5482 23.4016 22.554C23.3913 22.5598 23.3806 22.5646 23.3695 22.5685C23.3584 22.5725 23.347 22.5754 23.3353 22.5775C23.3238 22.5794 23.312 22.5804 23.3002 22.5804H21.1145L21.1144 22.5803Z" fill="black"/>
<path d="M19.89 12.1565H17.7384C17.7147 12.1565 17.6913 12.1584 17.668 12.1625C17.6448 12.1665 17.6221 12.1723 17.5999 12.1803C17.5776 12.1881 17.5563 12.1977 17.5358 12.2093C17.5153 12.2208 17.4959 12.2339 17.4777 12.2487C17.4594 12.2636 17.4426 12.2798 17.4273 12.2975C17.4119 12.3151 17.3982 12.3339 17.3861 12.3539C17.3741 12.3739 17.3638 12.3949 17.3554 12.4166C17.347 12.4383 17.3406 12.4607 17.336 12.4835L15.401 22.3008C15.3982 22.3154 15.3962 22.3301 15.3949 22.3448C15.3936 22.3597 15.3933 22.3745 15.3937 22.3893C15.3941 22.4043 15.3953 22.419 15.3975 22.4337C15.3995 22.4484 15.4025 22.463 15.4061 22.4774C15.4099 22.4918 15.4143 22.5059 15.4196 22.5198C15.4249 22.5338 15.431 22.5474 15.4378 22.5606C15.4446 22.5739 15.4521 22.5867 15.4604 22.5992C15.4687 22.6116 15.4776 22.6235 15.4872 22.6349C15.4967 22.6464 15.507 22.6574 15.5177 22.6677C15.5285 22.6781 15.5399 22.6878 15.5518 22.6969C15.5636 22.706 15.576 22.7144 15.5888 22.7223C15.6017 22.73 15.6149 22.7371 15.6285 22.7434C15.6421 22.7498 15.6562 22.7554 15.6704 22.7601C15.6846 22.765 15.6991 22.769 15.7138 22.7722C15.7285 22.7755 15.7433 22.7779 15.7583 22.7795C15.7733 22.7812 15.7883 22.782 15.8033 22.782H17.955C17.9786 22.782 18.0021 22.78 18.0253 22.776C18.0486 22.772 18.0713 22.7661 18.0935 22.7582C18.1157 22.7504 18.1371 22.7407 18.1576 22.7292C18.1782 22.7177 18.1975 22.7045 18.2157 22.6898C18.2339 22.6749 18.2507 22.6587 18.2661 22.641C18.2814 22.6233 18.2952 22.6045 18.3072 22.5845C18.3193 22.5645 18.3296 22.5436 18.3379 22.5219C18.3463 22.5001 18.3528 22.4778 18.3573 22.455L19.4013 17.1576H20.783C21.4227 17.1576 21.5568 17.2924 21.5622 17.2982C21.601 17.3392 21.6521 17.5299 21.5678 17.9569L20.7119 22.3008C20.7091 22.3154 20.7071 22.3301 20.7058 22.3448C20.7046 22.3597 20.7042 22.3745 20.7046 22.3893C20.705 22.4043 20.7064 22.419 20.7084 22.4337C20.7105 22.4484 20.7134 22.463 20.7171 22.4774C20.7208 22.4918 20.7252 22.5059 20.7306 22.5198C20.7359 22.5338 20.7419 22.5474 20.7487 22.5606C20.7555 22.5739 20.7631 22.5867 20.7714 22.5992C20.7796 22.6116 20.7885 22.6235 20.7981 22.635C20.8076 22.6464 20.8179 22.6574 20.8286 22.6677C20.8395 22.6781 20.8508 22.6878 20.8627 22.6969C20.8745 22.706 20.8869 22.7144 20.8998 22.7223C20.9126 22.73 20.9258 22.7371 20.9394 22.7434C20.9532 22.7498 20.9671 22.7554 20.9813 22.7601C20.9955 22.765 21.01 22.769 21.0248 22.7722C21.0395 22.7755 21.0543 22.7779 21.0692 22.7795C21.0842 22.7812 21.0992 22.782 21.1143 22.782H23.3001C23.3237 22.782 23.3471 22.78 23.3703 22.776C23.3936 22.772 23.4163 22.7661 23.4386 22.7582C23.4608 22.7504 23.4822 22.7407 23.5027 22.7292C23.5232 22.7177 23.5426 22.7045 23.5608 22.6898C23.5791 22.6749 23.5958 22.6587 23.6111 22.641C23.6266 22.6233 23.6403 22.6045 23.6523 22.5845C23.6644 22.5645 23.6746 22.5436 23.6831 22.5219C23.6915 22.5001 23.6979 22.4778 23.7024 22.455L24.6027 17.8865C24.8139 16.8142 24.6333 16.0097 24.0658 15.4953C23.5243 15.0049 22.6172 14.7665 21.2926 14.7665H19.8729L20.2925 12.6377C20.2954 12.6231 20.2975 12.6084 20.2987 12.5935C20.2999 12.5788 20.3003 12.564 20.2999 12.549C20.2995 12.5342 20.2982 12.5195 20.2961 12.5048C20.294 12.49 20.2912 12.4755 20.2874 12.4611C20.2838 12.4467 20.2792 12.4326 20.2739 12.4186C20.2686 12.4047 20.2626 12.3911 20.2558 12.3778C20.2489 12.3646 20.2414 12.3517 20.2332 12.3393C20.2249 12.3269 20.216 12.3149 20.2065 12.3035C20.1968 12.292 20.1867 12.2811 20.1759 12.2708C20.165 12.2604 20.1538 12.2507 20.1418 12.2415C20.1299 12.2324 20.1176 12.2239 20.1047 12.2162C20.0919 12.2084 20.0786 12.2013 20.065 12.195C20.0514 12.1887 20.0375 12.1831 20.0232 12.1782C20.0089 12.1735 19.9945 12.1694 19.9798 12.1662C19.9651 12.1629 19.9502 12.1605 19.9353 12.1588C19.9203 12.1572 19.9052 12.1564 19.8902 12.1564M19.8902 12.5605L19.3759 15.1707H21.2927C22.4987 15.1707 23.3306 15.3783 23.7886 15.7928C24.2465 16.2075 24.3835 16.8801 24.2006 17.8095L23.3003 22.3779H21.1145L21.9704 18.0341C22.0678 17.54 22.0319 17.2029 21.8628 17.0233C21.6937 16.8435 21.3338 16.7535 20.7833 16.7535H19.0634L17.955 22.3779H15.8034L17.7384 12.5605H19.89" fill="white"/>
<path d="M27.8065 20.6268C28.6305 20.6268 29.2458 20.477 29.635 20.1817C30.0201 19.8893 30.2861 19.3828 30.4255 18.676C30.5555 18.0154 30.506 17.5542 30.2784 17.3054C30.0456 17.0512 29.5425 16.9222 28.783 16.9222H27.466L26.7358 20.6269H27.8063L27.8065 20.6268ZM23.4989 25.1903C23.4377 25.1903 23.3797 25.1634 23.3408 25.1168C23.3213 25.0934 23.3078 25.0672 23.3003 25.038C23.2928 25.0087 23.2919 24.9793 23.2978 24.9497L25.2328 15.1324C25.235 15.1209 25.2382 15.1098 25.2424 15.099C25.2467 15.088 25.2517 15.0776 25.2578 15.0676C25.2638 15.0576 25.2707 15.0482 25.2784 15.0394C25.2861 15.0305 25.2945 15.0224 25.3035 15.015C25.3127 15.0076 25.3223 15.0011 25.3326 14.9953C25.3428 14.9895 25.3536 14.9847 25.3647 14.9808C25.3759 14.9768 25.3872 14.9738 25.3988 14.9719C25.4105 14.9699 25.4222 14.9689 25.434 14.9689H29.6042C30.9151 14.9689 31.8905 15.3192 32.5037 16.012C33.1202 16.7078 33.3104 17.6805 33.0695 18.903C32.9712 19.4011 32.8026 19.8636 32.568 20.2778C32.333 20.6924 32.0226 21.076 31.6452 21.4182C31.1933 21.8352 30.6818 22.1377 30.1263 22.3156C29.5796 22.4912 28.8776 22.5804 28.0397 22.5804H26.3498L25.8677 25.0269C25.8655 25.0383 25.8622 25.0495 25.8581 25.0603C25.8539 25.0712 25.8487 25.0817 25.8427 25.0917C25.8366 25.1017 25.8298 25.1111 25.8221 25.1199C25.8144 25.1288 25.8061 25.1369 25.7969 25.1443C25.7878 25.1517 25.7781 25.1583 25.7679 25.164C25.7576 25.1698 25.747 25.1747 25.7358 25.1785C25.7247 25.1825 25.7133 25.1855 25.7017 25.1875C25.6901 25.1894 25.6783 25.1904 25.6665 25.1904H23.4979L23.4989 25.1903Z" fill="black"/>
<path d="M27.6349 17.1243H28.7829C29.6996 17.1243 30.0181 17.3228 30.1263 17.4409C30.3059 17.6372 30.3398 18.0511 30.2243 18.6376C30.0947 19.2943 29.8543 19.7601 29.51 20.0215C29.1574 20.2892 28.5842 20.4249 27.8064 20.4249H26.9844L27.6349 17.1243ZM29.6041 14.7669H25.4337C25.4101 14.7669 25.3867 14.7689 25.3634 14.7729C25.3403 14.7768 25.3175 14.7828 25.2953 14.7906C25.273 14.7986 25.2517 14.8082 25.2312 14.8197C25.2107 14.8313 25.1913 14.8444 25.1731 14.8592C25.1549 14.874 25.138 14.8903 25.1227 14.9078C25.1074 14.9255 25.0937 14.9444 25.0816 14.9644C25.0695 14.9844 25.0592 15.0052 25.0508 15.027C25.0425 15.0487 25.036 15.0711 25.0315 15.0939L23.0963 24.9119C23.0935 24.9265 23.0915 24.9412 23.0902 24.9559C23.089 24.9708 23.0886 24.9856 23.089 25.0004C23.0894 25.0153 23.0907 25.0301 23.0928 25.0448C23.0949 25.0595 23.0978 25.074 23.1015 25.0885C23.1052 25.1029 23.1096 25.117 23.115 25.1309C23.1203 25.1448 23.1263 25.1584 23.1331 25.1716C23.1399 25.185 23.1474 25.1978 23.1557 25.2101C23.164 25.2226 23.1729 25.2345 23.1825 25.246C23.192 25.2575 23.2023 25.2684 23.213 25.2787C23.2238 25.2891 23.2352 25.2988 23.2471 25.3079C23.2589 25.3171 23.2713 25.3255 23.2841 25.3333C23.297 25.3411 23.3102 25.3482 23.3238 25.3545C23.3374 25.3608 23.3514 25.3663 23.3657 25.3712C23.3799 25.376 23.3943 25.3801 23.409 25.3833C23.4238 25.3866 23.4386 25.389 23.4535 25.3906C23.4686 25.3922 23.4836 25.3931 23.4986 25.3931H25.6674C25.6909 25.3931 25.7144 25.3911 25.7377 25.3872C25.7609 25.3831 25.7836 25.3772 25.8058 25.3693C25.8281 25.3615 25.8494 25.3518 25.8699 25.3402C25.8904 25.3288 25.9098 25.3157 25.928 25.3008C25.9463 25.286 25.963 25.2698 25.9784 25.2521C25.9938 25.2344 26.0075 25.2156 26.0196 25.1956C26.0316 25.1756 26.0418 25.1547 26.0503 25.133C26.0587 25.1112 26.0652 25.089 26.0697 25.0661L26.5196 22.783H28.0394C28.8988 22.783 29.6223 22.6906 30.1897 22.5084C30.773 22.3215 31.3099 22.0045 31.785 21.5663C32.1779 21.21 32.5014 20.8099 32.7466 20.3771C32.9919 19.9443 33.1681 19.4615 33.2705 18.9423C33.5242 17.6554 33.318 16.625 32.6577 15.8798C32.0039 15.1417 30.9765 14.7675 29.6041 14.7675M26.4871 20.8296H27.8062C28.6805 20.8296 29.3319 20.6674 29.7597 20.3424C30.1876 20.0175 30.4765 19.4751 30.6264 18.7152C30.77 17.9856 30.7047 17.4708 30.4304 17.1708C30.1561 16.8707 29.6066 16.7207 28.7828 16.7207H27.297L26.4872 20.8295M29.6041 15.1716C30.8587 15.1716 31.7739 15.4962 32.3492 16.1456C32.9244 16.7949 33.0976 17.7013 32.8681 18.8651C32.7736 19.3445 32.6139 19.7827 32.3889 20.18C32.164 20.5771 31.8697 20.9406 31.5063 21.27C31.0733 21.6697 30.5922 21.9544 30.0628 22.1242C29.5334 22.2942 28.8592 22.3789 28.0396 22.3789H26.1819L25.6676 24.9889H23.4988L25.4338 15.1716H29.6042" fill="white"/>
<defs>
<radialGradient id="paint0_radial_622_355" cx="0" cy="0" r="1" gradientUnits="userSpaceOnUse" gradientTransform="translate(11.957 13.15) scale(24.7992 24.4547)">
<stop stop-color="#AEB2D5"/>
<stop offset="0.25" stop-color="#AEB2D5"/>
<stop offset="0.296875" stop-color="#AEB2D5"/>
<stop offset="0.300781" stop-color="#ADB1D4"/>
<stop offset="0.304688" stop-color="#ACB0D4"/>
<stop offset="0.308594" stop-color="#ACB0D3"/>
<stop offset="0.3125" stop-color="#ABAFD2"/>
<stop offset="0.316406" stop-color="#AAAED2"/>
<stop offset="0.320312" stop-color="#A9ADD1"/>
<stop offset="0.324219" stop-color="#A8ACD1"/>
<stop offset="0.328125" stop-color="#A7ABD0"/>
<stop offset="0.332031" stop-color="#A6AACF"/>
<stop offset="0.335938" stop-color="#A5A9CF"/>
<stop offset="0.339844" stop-color="#A4A9CE"/>
<stop offset="0.34375" stop-color="#A4A8CD"/>
<stop offset="0.347656" stop-color="#A3A7CD"/>
<stop offset="0.351562" stop-color="#A2A6CC"/>
<stop offset="0.355469" stop-color="#A1A5CB"/>
<stop offset="0.359375" stop-color="#A0A4CB"/>
<stop offset="0.363281" stop-color="#9FA3CA"/>
<stop offset="0.367188" stop-color="#9EA2C9"/>
<stop offset="0.371094" stop-color="#9DA1C9"/>
<stop offset="0.375" stop-color="#9CA1C8"/>
<stop offset="0.378906" stop-color="#9CA0C7"/>
<stop offset="0.382812" stop-color="#9B9FC7"/>
<stop offset="0.386719" stop-color="#9A9EC6"/>
<stop offset="0.390625" stop-color="#999DC5"/>
<stop offset="0.394531" stop-color="#989CC5"/>
<stop offset="0.398438" stop-color="#979BC4"/>
<stop offset="0.402344" stop-color="#969AC3"/>
<stop offset="0.40625" stop-color="#9599C3"/>
<stop offset="0.410156" stop-color="#9499C2"/>
<stop offset="0.414062" stop-color="#9498C1"/>
<stop offset="0.417969" stop-color="#9397C1"/>
<stop offset="0.421875" stop-color="#9296C0"/>
<stop offset="0.425781" stop-color="#9195BF"/>
<stop offset="0.429688" stop-color="#9094BF"/>
<stop offset="0.433594" stop-color="#8F93BE"/>
<stop offset="0.4375" stop-color="#8E92BD"/>
<stop offset="0.441406" stop-color="#8D91BD"/>
<stop offset="0.445312" stop-color="#8D91BC"/>
<stop offset="0.449219" stop-color="#8C90BB"/>
<stop offset="0.453125" stop-color="#8B8FBB"/>
<stop offset="0.457031" stop-color="#8A8EBA"/>
<stop offset="0.460938" stop-color="#898DB9"/>
<stop offset="0.464844" stop-color="#888CB9"/>
<stop offset="0.46875" stop-color="#878BB8"/>
<stop offset="0.472656" stop-color="#868AB7"/>
<stop offset="0.476562" stop-color="#858AB7"/>
<stop offset="0.480469" stop-color="#8589B6"/>
<stop offset="0.484375" stop-color="#8488B5"/>
<stop offset="0.488281" stop-color="#8387B5"/>
<stop offset="0.492188" stop-color="#8286B4"/>
<stop offset="0.496094" stop-color="#8185B3"/>
<stop offset="0.5" stop-color="#8084B3"/>
<stop offset="0.503906" stop-color="#7F83B2"/>
<stop offset="0.507812" stop-color="#7E82B1"/>
<stop offset="0.511719" stop-color="#7D82B1"/>
<stop offset="0.515625" stop-color="#7D81B0"/>
<stop offset="0.519531" stop-color="#7C80B0"/>
<stop offset="0.523438" stop-color="#7B7FAF"/>
<stop offset="0.527344" stop-color="#7A7EAE"/>
<stop offset="0.53125" stop-color="#797DAE"/>
<stop offset="0.535156" stop-color="#787CAD"/>
<stop offset="0.539062" stop-color="#777BAC"/>
<stop offset="0.542969" stop-color="#767AAC"/>
<stop offset="0.546875" stop-color="#767AAB"/>
<stop offset="0.550781" stop-color="#7579AA"/>
<stop offset="0.554688" stop-color="#7478AA"/>
<stop offset="0.558594" stop-color="#7377A9"/>
<stop offset="0.5625" stop-color="#7276A8"/>
<stop offset="0.566406" stop-color="#7175A8"/>
<stop offset="0.570312" stop-color="#7074A7"/>
<stop offset="0.574219" stop-color="#6F73A6"/>
<stop offset="0.578125" stop-color="#6E73A6"/>
<stop offset="0.582031" stop-color="#6E72A5"/>
<stop offset="0.585938" stop-color="#6D71A4"/>
<stop offset="0.589844" stop-color="#6C70A4"/>
<stop offset="0.59375" stop-color="#6B6FA3"/>
<stop offset="0.597656" stop-color="#6A6EA2"/>
<stop offset="0.601562" stop-color="#696DA2"/>
<stop offset="0.605469" stop-color="#686CA1"/>
<stop offset="0.609375" stop-color="#676BA0"/>
<stop offset="0.613281" stop-color="#666BA0"/>
<stop offset="0.617188" stop-color="#666A9F"/>
<stop offset="0.621094" stop-color="#65699E"/>
<stop offset="0.625" stop-color="#64689E"/>
<stop offset="0.628906" stop-color="#63679D"/>
<stop offset="0.632812" stop-color="#62669C"/>
<stop offset="0.636719" stop-color="#61659C"/>
<stop offset="0.640625" stop-color="#60649B"/>
<stop offset="0.644531" stop-color="#5F639A"/>
<stop offset="0.648438" stop-color="#5E639A"/>
<stop offset="0.652344" stop-color="#5E6299"/>
<stop offset="0.65625" stop-color="#5D6198"/>
<stop offset="0.660156" stop-color="#5C6098"/>
<stop offset="0.664062" stop-color="#5B5F97"/>
<stop offset="0.667969" stop-color="#5A5E96"/>
<stop offset="0.671875" stop-color="#595D96"/>
<stop offset="0.675781" stop-color="#585C95"/>
<stop offset="0.679688" stop-color="#575B94"/>
<stop offset="0.683594" stop-color="#575B94"/>
<stop offset="0.6875" stop-color="#565A93"/>
<stop offset="0.691406" stop-color="#555992"/>
<stop offset="0.695312" stop-color="#545892"/>
<stop offset="0.699219" stop-color="#535791"/>
<stop offset="0.703125" stop-color="#525691"/>
<stop offset="0.707031" stop-color="#515590"/>
<stop offset="0.710938" stop-color="#50548F"/>
<stop offset="0.714844" stop-color="#4F548F"/>
<stop offset="0.71875" stop-color="#4F538E"/>
<stop offset="0.722656" stop-color="#4E528D"/>
<stop offset="0.726562" stop-color="#4D518D"/>
<stop offset="0.730469" stop-color="#4C508C"/>
<stop offset="0.734375" stop-color="#4B4F8B"/>
<stop offset="0.738281" stop-color="#4A4E8B"/>
<stop offset="0.742188" stop-color="#494D8A"/>
<stop offset="0.746094" stop-color="#484C89"/>
<stop offset="1" stop-color="#484C89"/>
</radialGradient>
</defs>
</svg>
