<svg width="34" height="31" viewBox="0 0 34 31" fill="none" xmlns="http://www.w3.org/2000/svg">
<path d="M16.9982 18.1299C18.6746 18.1299 20.0335 16.7709 20.0335 15.0946C20.0335 13.4182 18.6746 12.0593 16.9982 12.0593C15.3218 12.0593 13.9629 13.4182 13.9629 15.0946C13.9629 16.7709 15.3218 18.1299 16.9982 18.1299Z" fill="#00D8FF"/>
<path d="M16.9977 22.0539C13.3495 22.1421 9.71032 21.6504 6.21632 20.597C4.60229 20.0853 3.09691 19.2793 1.77626 18.2197C1.27232 17.8577 0.852645 17.391 0.546043 16.8516C0.239441 16.3121 0.0531661 15.7127 0 15.0945C0 13.0876 2.20485 11.1207 5.89822 9.83374C9.48563 8.69337 13.2339 8.14069 16.9977 8.1971C20.7114 8.14521 24.4094 8.6879 27.9516 9.8046C29.506 10.3002 30.9603 11.0672 32.2472 12.0702C32.7425 12.4153 33.1559 12.8651 33.458 13.3877C33.7601 13.9104 33.9436 14.4931 33.9955 15.0945C33.9955 17.1804 31.5308 19.2942 27.5606 20.6079C24.1343 21.627 20.5719 22.1147 16.9977 22.0539ZM16.9977 9.64919C13.3968 9.60106 9.81113 10.1265 6.37537 11.2057C2.97582 12.3919 1.45209 14.014 1.45209 15.0909C1.45209 16.2176 3.08995 17.989 6.68618 19.2189C10.0288 20.2216 13.5091 20.6884 16.9977 20.6018C20.4172 20.663 23.8259 20.2003 27.1053 19.2298C30.8388 17.9927 32.5385 16.2188 32.5385 15.0945C32.4773 14.7087 32.3367 14.3398 32.1256 14.0111C31.9145 13.6824 31.6376 13.401 31.3123 13.1847C30.161 12.2949 28.8618 11.6151 27.4744 11.1766C24.0858 10.1127 20.549 9.59707 16.9977 9.64919Z" fill="#00D8FF"/>
<path d="M10.1007 30.2335C9.53427 30.2465 8.97456 30.1091 8.47859 29.8353C6.73996 28.8324 6.13776 25.9403 6.86745 22.0976C7.67198 18.4202 9.06599 14.897 10.9955 11.6647C12.8054 8.42187 15.1225 5.48952 17.8589 2.97882C19.0647 1.87968 20.4558 1.00288 21.9675 0.38909C22.5143 0.132835 23.1108 0 23.7146 0C24.3185 0 24.915 0.132835 25.4618 0.38909C27.2696 1.43081 27.8682 4.62153 27.0243 8.71677C26.195 12.1947 24.8372 15.5249 22.9983 18.5912C21.2521 21.7958 19.0079 24.7026 16.3498 27.203C15.1002 28.3453 13.65 29.2463 12.0724 29.8608C11.4408 30.0952 10.7742 30.2212 10.1007 30.2335ZM12.2533 12.3859C10.4128 15.4811 9.07674 18.8495 8.29526 22.3647C7.62385 25.9039 8.26855 28.0323 9.20585 28.5738C10.1771 29.1359 12.535 28.6029 15.3979 26.1018C17.9354 23.7063 20.0774 20.9238 21.7441 17.8579C23.5057 14.9264 24.8082 11.7425 25.6062 8.41688C26.4003 4.56204 25.7143 2.20178 24.7406 1.64085C24.3756 1.50102 23.9856 1.43842 23.5953 1.45702C23.2049 1.47562 22.8226 1.57501 22.4726 1.74891C21.127 2.30419 19.8898 3.0925 18.8181 4.0776C16.2037 6.48252 13.9903 9.28976 12.2618 12.3931L12.2533 12.3859Z" fill="#00D8FF"/>
<path d="M23.8904 30.2493C22.2452 30.2493 20.1557 29.2537 17.98 27.3827C15.1956 24.8492 12.8394 21.882 11.0024 18.5961C9.09713 15.4082 7.71417 11.9361 6.90596 8.31125C6.55546 6.71649 6.49051 5.0722 6.71413 3.45475C6.76583 2.85474 6.94853 2.27338 7.24936 1.75166C7.55018 1.22994 7.9618 0.780562 8.45519 0.435226C10.2606 -0.610136 13.3238 0.464365 16.4502 3.23985C19.0491 5.69504 21.2562 8.53429 22.9943 11.6586C24.8984 14.772 26.2959 18.1682 27.1345 21.72C27.5001 23.3733 27.5565 25.08 27.3008 26.7538C27.24 27.3711 27.0464 27.9679 26.7333 28.5033C26.4202 29.0388 25.995 29.5002 25.4869 29.8559C24.999 30.1263 24.448 30.2621 23.8904 30.2493ZM12.259 17.8652C14.0213 21.0055 16.2721 23.8452 18.927 26.2779C21.6576 28.6272 23.8236 29.1323 24.7548 28.5847C25.7261 28.0201 26.4424 25.7157 25.7043 21.9872C24.8955 18.596 23.5551 15.3543 21.7329 12.3822C20.0742 9.39197 17.9675 6.67323 15.4862 4.32043C12.5431 1.70763 10.1562 1.12363 9.18366 1.68699C8.88055 1.93331 8.6318 2.23981 8.45313 2.58712C8.27445 2.93444 8.16973 3.31503 8.14558 3.70486C7.95254 5.14735 8.01543 6.61258 8.33135 8.03322C9.10875 11.4997 10.4351 14.8197 12.2603 17.8676L12.259 17.8652Z" fill="#00D8FF"/>
</svg>
