<svg width="34" height="30" viewBox="0 0 34 30" fill="none" xmlns="http://www.w3.org/2000/svg">
<rect width="34" height="30" fill="white"/>
<path d="M8.5 11.8C9.63333 7.26667 12.4667 5 17 5C23.8 5 24.65 10.1 28.05 10.95C30.3167 11.5167 32.3 10.6667 34 8.4C32.8667 12.9333 30.0333 15.2 25.5 15.2C18.7 15.2 17.85 10.1 14.45 9.25C12.1833 8.68333 10.2 9.53333 8.5 11.8ZM0 22C1.13333 17.4667 3.96667 15.2 8.5 15.2C15.3 15.2 16.15 20.3 19.55 21.15C21.8167 21.7167 23.8 20.8667 25.5 18.6C24.3667 23.1333 21.5333 25.4 17 25.4C10.2 25.4 9.35 20.3 5.95 19.45C3.68333 18.8833 1.7 19.7333 0 22Z" fill="#44A8B3"/>
</svg>
